<svg width="492px" height="232px"
 viewBox="0.00 0.00 492.00 232.00" xmlns="http://www.w3.org/2000/svg" xmlns:xlink="http://www.w3.org/1999/xlink">
<g id="graph0" class="graph" transform="scale(1.0 1.0) rotate(0) translate(4 228)">
<title>org.fulib.mockups</title>
<polygon fill="white" stroke="transparent" points="-4,4 -4,-228 488,-228 488,4 -4,4"/>
<!-- Node -->
<g id="node1" class="node">
<title>Node</title>
<polygon fill="none" stroke="black" points="211,-198 211,-220 320,-220 320,-198 211,-198"/>
<text text-anchor="start" x="250.34" y="-204.4" font-family="Times,serif" font-size="14.00">Node</text>
<polygon fill="none" stroke="black" points="211,-92 211,-198 320,-198 320,-92 211,-92"/>
<text text-anchor="start" x="214" y="-182.4" font-family="Times,serif" font-size="14.00">id :String</text>
<text text-anchor="start" x="214" y="-165.6" font-family="Times,serif" font-size="14.00">description :String</text>
<text text-anchor="start" x="214" y="-148.8" font-family="Times,serif" font-size="14.00">value :String</text>
<text text-anchor="start" x="214" y="-132" font-family="Times,serif" font-size="14.00">action :String</text>
<text text-anchor="start" x="214" y="-115.2" font-family="Times,serif" font-size="14.00">icards :Object</text>
<text text-anchor="start" x="214" y="-98.4" font-family="Times,serif" font-size="14.00">tables :Object</text>
</g>
<!-- Node&#45;&gt;Node -->
<g id="edge1" class="edge">
<title>Node&#45;&gt;Node</title>
<path fill="none" stroke="black" d="M327.78,-133.34C338.26,-136.51 345.5,-144.07 345.5,-156 345.5,-167.93 338.26,-175.49 327.78,-178.66"/>
<text text-anchor="middle" x="333.03" y="-166.06" font-family="Times,serif" font-size="14.00"> *</text>
<text text-anchor="middle" x="353.63" y="-120.74" font-family="Times,serif" font-size="14.00">content *</text>
</g>
<!-- Content -->
<g id="node2" class="node">
<title>Content</title>
<polygon fill="none" stroke="black" points="8,-18 8,-40 58,-40 58,-18 8,-18"/>
<text text-anchor="start" x="10.83" y="-24.4" font-family="Times,serif" font-size="14.00">Content</text>
<polygon fill="none" stroke="black" points="8,-12 8,-18 58,-18 58,-12 8,-12"/>
</g>
<!-- Content&#45;&gt;Node -->
<g id="edge5" class="edge">
<title>Content&#45;&gt;Node</title>
<path fill="none" stroke="black" d="M61.38,-44.1C65.91,-46.77 70.57,-49.48 75,-52 113.79,-74.05 157.55,-97.84 193.28,-117"/>
<polygon fill="none" stroke="black" points="191.71,-120.13 202.18,-121.76 195.02,-113.96 191.71,-120.13"/>
</g>
<!-- Line -->
<g id="node3" class="node">
<title>Line</title>
<polygon fill="none" stroke="black" points="96,-18 96,-40 127,-40 127,-18 96,-18"/>
<text text-anchor="start" x="98.67" y="-24.4" font-family="Times,serif" font-size="14.00">Line</text>
<polygon fill="none" stroke="black" points="96,-12 96,-18 127,-18 127,-12 96,-12"/>
</g>
<!-- Line&#45;&gt;Node -->
<g id="edge7" class="edge">
<title>Line&#45;&gt;Node</title>
<path fill="none" stroke="black" d="M131.77,-44.26C148.07,-57.81 171.77,-77.51 194.67,-96.54"/>
<polygon fill="none" stroke="black" points="192.46,-99.26 202.39,-102.96 196.94,-93.88 192.46,-99.26"/>
</g>
<!-- Section -->
<g id="node4" class="node">
<title>Section</title>
<polygon fill="none" stroke="black" points="165,-18 165,-40 212,-40 212,-18 165,-18"/>
<text text-anchor="start" x="167.5" y="-24.4" font-family="Times,serif" font-size="14.00">Section</text>
<polygon fill="none" stroke="black" points="165,-12 165,-18 212,-18 212,-12 165,-12"/>
</g>
<!-- Section&#45;&gt;Node -->
<g id="edge8" class="edge">
<title>Section&#45;&gt;Node</title>
<path fill="none" stroke="black" d="M198.38,-44.26C204.04,-53.67 211.48,-66.03 219.33,-79.08"/>
<polygon fill="none" stroke="black" points="216.38,-80.97 224.53,-87.73 222.38,-77.36 216.38,-80.97"/>
</g>
<!-- Page -->
<g id="node5" class="node">
<title>Page</title>
<polygon fill="none" stroke="black" points="249,-18 249,-40 282,-40 282,-18 249,-18"/>
<text text-anchor="start" x="251.89" y="-24.4" font-family="Times,serif" font-size="14.00">Page</text>
<polygon fill="none" stroke="black" points="249,-12 249,-18 282,-18 282,-12 249,-12"/>
</g>
<!-- Page&#45;&gt;Node -->
<g id="edge4" class="edge">
<title>Page&#45;&gt;Node</title>
<path fill="none" stroke="black" d="M265,-44.26C265,-53.31 265,-65.09 265,-77.59"/>
<polygon fill="none" stroke="black" points="261.5,-77.73 265,-87.73 268.5,-77.73 261.5,-77.73"/>
</g>
<!-- WebApp -->
<g id="node6" class="node">
<title>WebApp</title>
<polygon fill="none" stroke="black" points="318,-18 318,-40 374,-40 374,-18 318,-18"/>
<text text-anchor="start" x="320.73" y="-24.4" font-family="Times,serif" font-size="14.00">WebApp</text>
<polygon fill="none" stroke="black" points="318,-12 318,-18 374,-18 374,-12 318,-12"/>
</g>
<!-- WebApp&#45;&gt;Node -->
<g id="edge6" class="edge">
<title>WebApp&#45;&gt;Node</title>
<path fill="none" stroke="black" d="M335.08,-44.26C329.12,-53.67 321.3,-66.03 313.04,-79.08"/>
<polygon fill="none" stroke="black" points="309.96,-77.41 307.57,-87.73 315.87,-81.15 309.96,-77.41"/>
</g>
<!-- Element -->
<g id="node7" class="node">
<title>Element</title>
<polygon fill="none" stroke="black" points="408,-26 408,-48 476,-48 476,-26 408,-26"/>
<text text-anchor="start" x="418.67" y="-32.4" font-family="Times,serif" font-size="14.00">Element</text>
<polygon fill="none" stroke="black" points="408,-4 408,-26 476,-26 476,-4 408,-4"/>
<text text-anchor="start" x="411" y="-10.4" font-family="Times,serif" font-size="14.00">text :String</text>
</g>
<!-- Element&#45;&gt;Node -->
<g id="edge2" class="edge">
<title>Element&#45;&gt;Node</title>
<path fill="none" stroke="black" d="M401.53,-52.29C379.66,-67.3 352.25,-86.86 327.71,-104.87"/>
<text text-anchor="middle" x="332.96" y="-92.27" font-family="Times,serif" font-size="14.00"> *</text>
<text text-anchor="middle" x="371.4" y="-56.49" font-family="Times,serif" font-size="14.00">elements *</text>
</g>
<!-- Element&#45;&gt;Node -->
<g id="edge3" class="edge">
<title>Element&#45;&gt;Node</title>
<path fill="none" stroke="black" d="M412.53,-52.29C391.62,-68.27 362.74,-89.4 336.04,-108.35"/>
<polygon fill="none" stroke="black" points="333.98,-105.51 327.84,-114.15 338.02,-111.23 333.98,-105.51"/>
</g>
</g>
</svg>
