<svg width="580px" height="325px"
 viewBox="0.00 0.00 580.17 325.25" xmlns="http://www.w3.org/2000/svg" xmlns:xlink="http://www.w3.org/1999/xlink">
<g id="graph0" class="graph" transform="scale(1.0 1.0) rotate(0) translate(4 321.25)">
<title>org.fulib.mockups</title>
<polygon fill="white" stroke="transparent" points="-4,4 -4,-321.25 576.17,-321.25 576.17,4 -4,4"/>
<!-- Content -->
<g id="node1" class="node">
<title>Content</title>
<polygon fill="none" stroke="black" points="8.5,-29.75 8.5,-50.75 57.5,-50.75 57.5,-29.75 8.5,-29.75"/>
<text text-anchor="start" x="11.5" y="-36.55" font-family="Times,serif" font-size="14.00">Content</text>
<polygon fill="none" stroke="black" points="8.5,-23.75 8.5,-29.75 57.5,-29.75 57.5,-23.75 8.5,-23.75"/>
</g>
<!-- Node -->
<g id="node4" class="node">
<title>Node</title>
<polygon fill="none" stroke="black" points="122.5,-205.75 122.5,-226.75 242.5,-226.75 242.5,-205.75 122.5,-205.75"/>
<text text-anchor="start" x="167.5" y="-212.55" font-family="Times,serif" font-size="14.00">Node</text>
<polygon fill="none" stroke="black" points="122.5,-109.75 122.5,-205.75 242.5,-205.75 242.5,-109.75 122.5,-109.75"/>
<text text-anchor="start" x="125.5" y="-191.55" font-family="Times,serif" font-size="14.00">id :String</text>
<text text-anchor="start" x="125.5" y="-176.55" font-family="Times,serif" font-size="14.00">description :String</text>
<text text-anchor="start" x="125.5" y="-161.55" font-family="Times,serif" font-size="14.00">value :String</text>
<text text-anchor="start" x="125.5" y="-146.55" font-family="Times,serif" font-size="14.00">action :String</text>
<text text-anchor="start" x="125.5" y="-131.55" font-family="Times,serif" font-size="14.00">icards :List&lt;Object&gt;</text>
<text text-anchor="start" x="125.5" y="-116.55" font-family="Times,serif" font-size="14.00">tables :List&lt;Object&gt;</text>
</g>
<!-- Content&#45;&gt;Node -->
<g id="edge5" class="edge">
<title>Content&#45;&gt;Node</title>
<path fill="none" stroke="black" d="M52.42,-55.89C66.55,-68.04 86.5,-85.2 106.54,-102.43"/>
<polygon fill="none" stroke="black" points="104.35,-105.16 114.21,-109.03 108.91,-99.86 104.35,-105.16"/>
</g>
<!-- Element -->
<g id="node2" class="node">
<title>Element</title>
<polygon fill="none" stroke="black" points="149.5,-292.25 149.5,-313.25 216.5,-313.25 216.5,-292.25 149.5,-292.25"/>
<text text-anchor="start" x="160" y="-299.05" font-family="Times,serif" font-size="14.00">Element</text>
<polygon fill="none" stroke="black" points="149.5,-271.25 149.5,-292.25 216.5,-292.25 216.5,-271.25 149.5,-271.25"/>
<text text-anchor="start" x="152.5" y="-278.05" font-family="Times,serif" font-size="14.00">text :String</text>
</g>
<!-- Element&#45;&gt;Node -->
<g id="edge6" class="edge">
<title>Element&#45;&gt;Node</title>
<path fill="none" stroke="black" d="M188.01,-267.17C188.6,-259.58 188.98,-250.77 189.15,-241.61"/>
<polygon fill="none" stroke="black" points="192.65,-241.61 189.25,-231.57 185.65,-241.54 192.65,-241.61"/>
</g>
<!-- Line -->
<g id="node3" class="node">
<title>Line</title>
<polygon fill="none" stroke="black" points="95.5,-29.75 95.5,-50.75 126.5,-50.75 126.5,-29.75 95.5,-29.75"/>
<text text-anchor="start" x="98.5" y="-36.55" font-family="Times,serif" font-size="14.00">Line</text>
<polygon fill="none" stroke="black" points="95.5,-23.75 95.5,-29.75 126.5,-29.75 126.5,-23.75 95.5,-23.75"/>
</g>
<!-- Line&#45;&gt;Node -->
<g id="edge7" class="edge">
<title>Line&#45;&gt;Node</title>
<path fill="none" stroke="black" d="M120.06,-55.89C126.14,-66.77 134.45,-81.67 143.03,-97.04"/>
<polygon fill="none" stroke="black" points="140.17,-99.09 148.1,-106.12 146.28,-95.68 140.17,-99.09"/>
</g>
<!-- Node&#45;&gt;Element -->
<g id="edge1" class="edge">
<title>Node&#45;&gt;Element</title>
<path fill="none" stroke="black" d="M175.75,-231.57C175.77,-244.24 176.19,-256.84 176.99,-267.17"/>
<text text-anchor="middle" x="146.99" y="-255.97" font-family="Times,serif" font-size="14.00">elements *</text>
<text text-anchor="middle" x="170.25" y="-235.37" font-family="Times,serif" font-size="14.00"> *</text>
</g>
<!-- Node&#45;&gt;Node -->
<g id="edge2" class="edge">
<title>Node&#45;&gt;Node</title>
<path fill="none" stroke="black" d="M250.63,-147.79C261.26,-150.93 268.5,-157.91 268.5,-168.75 268.5,-179.6 261.26,-186.58 250.63,-189.72"/>
<text text-anchor="middle" x="276.13" y="-178.52" font-family="Times,serif" font-size="14.00">content *</text>
<text text-anchor="middle" x="256.13" y="-136.59" font-family="Times,serif" font-size="14.00"> *</text>
</g>
<!-- Page -->
<g id="node5" class="node">
<title>Page</title>
<polygon fill="none" stroke="black" points="166.5,-29.75 166.5,-50.75 199.5,-50.75 199.5,-29.75 166.5,-29.75"/>
<text text-anchor="start" x="169.5" y="-36.55" font-family="Times,serif" font-size="14.00">Page</text>
<polygon fill="none" stroke="black" points="166.5,-23.75 166.5,-29.75 199.5,-29.75 199.5,-23.75 166.5,-23.75"/>
</g>
<!-- Page&#45;&gt;Node -->
<g id="edge8" class="edge">
<title>Page&#45;&gt;Node</title>
<path fill="none" stroke="black" d="M182.5,-55.89C182.5,-66.47 182.5,-80.84 182.5,-95.75"/>
<polygon fill="none" stroke="black" points="179,-96.12 182.5,-106.12 186,-96.12 179,-96.12"/>
</g>
<!-- Parameter -->
<g id="node6" class="node">
<title>Parameter</title>
<polygon fill="none" stroke="black" points="421.5,-175.75 421.5,-196.75 497.5,-196.75 497.5,-175.75 421.5,-175.75"/>
<text text-anchor="start" x="431.5" y="-182.55" font-family="Times,serif" font-size="14.00">Parameter</text>
<polygon fill="none" stroke="black" points="421.5,-139.75 421.5,-175.75 497.5,-175.75 497.5,-139.75 421.5,-139.75"/>
<text text-anchor="start" x="424.5" y="-161.55" font-family="Times,serif" font-size="14.00">key :String</text>
<text text-anchor="start" x="424.5" y="-146.55" font-family="Times,serif" font-size="14.00">value :String</text>
</g>
<!-- Section -->
<g id="node7" class="node">
<title>Section</title>
<polygon fill="none" stroke="black" points="236.5,-29.75 236.5,-50.75 283.5,-50.75 283.5,-29.75 236.5,-29.75"/>
<text text-anchor="start" x="239.5" y="-36.55" font-family="Times,serif" font-size="14.00">Section</text>
<polygon fill="none" stroke="black" points="236.5,-23.75 236.5,-29.75 283.5,-29.75 283.5,-23.75 236.5,-23.75"/>
</g>
<!-- Section&#45;&gt;Node -->
<g id="edge9" class="edge">
<title>Section&#45;&gt;Node</title>
<path fill="none" stroke="black" d="M249.27,-55.89C242.72,-66.87 233.72,-81.95 224.45,-97.47"/>
<polygon fill="none" stroke="black" points="221.41,-95.74 219.29,-106.12 227.42,-99.33 221.41,-95.74"/>
</g>
<!-- UI -->
<g id="node8" class="node">
<title>UI</title>
<polygon fill="none" stroke="black" points="406.5,-44.75 406.5,-65.75 513.5,-65.75 513.5,-44.75 406.5,-44.75"/>
<text text-anchor="start" x="452.5" y="-51.55" font-family="Times,serif" font-size="14.00">UI</text>
<polygon fill="none" stroke="black" points="406.5,-8.75 406.5,-44.75 513.5,-44.75 513.5,-8.75 406.5,-8.75"/>
<text text-anchor="start" x="409.5" y="-30.55" font-family="Times,serif" font-size="14.00">id :String</text>
<text text-anchor="start" x="409.5" y="-15.55" font-family="Times,serif" font-size="14.00">description :String</text>
</g>
<!-- UI&#45;&gt;Parameter -->
<g id="edge4" class="edge">
<title>UI&#45;&gt;Parameter</title>
<path fill="none" stroke="black" d="M459.5,-70.31C459.5,-90.3 459.5,-116.06 459.5,-136.08"/>
<text text-anchor="middle" x="424" y="-124.88" font-family="Times,serif" font-size="14.00">parameters *</text>
<text text-anchor="middle" x="442.5" y="-74.11" font-family="Times,serif" font-size="14.00">owner</text>
</g>
<!-- UI&#45;&gt;UI -->
<g id="edge3" class="edge">
<title>UI&#45;&gt;UI</title>
<path fill="none" stroke="black" d="M521.17,-15C531.7,-18.11 539,-25.69 539,-37.75 539,-49.82 531.7,-57.4 521.17,-60.51"/>
<text text-anchor="middle" x="538.17" y="-49.31" font-family="Times,serif" font-size="14.00">parent</text>
<text text-anchor="middle" x="546.67" y="-3.8" font-family="Times,serif" font-size="14.00">content *</text>
</g>
<!-- WebApp -->
<g id="node9" class="node">
<title>WebApp</title>
<polygon fill="none" stroke="black" points="317.5,-29.75 317.5,-50.75 372.5,-50.75 372.5,-29.75 317.5,-29.75"/>
<text text-anchor="start" x="320.5" y="-36.55" font-family="Times,serif" font-size="14.00">WebApp</text>
<polygon fill="none" stroke="black" points="317.5,-23.75 317.5,-29.75 372.5,-29.75 372.5,-23.75 317.5,-23.75"/>
</g>
<!-- WebApp&#45;&gt;Node -->
<g id="edge10" class="edge">
<title>WebApp&#45;&gt;Node</title>
<path fill="none" stroke="black" d="M322.99,-55.89C306.36,-69.12 282.29,-88.3 258.75,-107.04"/>
<polygon fill="none" stroke="black" points="256.44,-104.4 250.79,-113.37 260.8,-109.88 256.44,-104.4"/>
</g>
</g>
</svg>
