<svg width="194px" height="182px"
 viewBox="0.00 0.00 194.39 182.42" xmlns="http://www.w3.org/2000/svg" xmlns:xlink="http://www.w3.org/1999/xlink">
<g id="graph0" class="graph" transform="scale(1.0 1.0) rotate(0) translate(4 178.42)">
<title>org.fulib.mockups.model</title>
<polygon fill="white" stroke="transparent" points="-4,4 -4,-178.42 190.39,-178.42 190.39,4 -4,4"/>
<!-- Parameter -->
<g id="node1" class="node">
<title>Parameter</title>
<polygon fill="none" stroke="black" points="33.91,-147.92 33.91,-169.92 110.91,-169.92 110.91,-147.92 33.91,-147.92"/>
<text text-anchor="start" x="44.03" y="-154.32" font-family="Times,serif" font-size="14.00">Parameter</text>
<polygon fill="none" stroke="black" points="33.91,-108.92 33.91,-147.92 110.91,-147.92 110.91,-108.92 33.91,-108.92"/>
<text text-anchor="start" x="36.91" y="-132.32" font-family="Times,serif" font-size="14.00">key :String</text>
<text text-anchor="start" x="36.91" y="-115.52" font-family="Times,serif" font-size="14.00">value :String</text>
</g>
<!-- Ui -->
<g id="node2" class="node">
<title>Ui</title>
<polygon fill="none" stroke="black" points="17.91,-42.92 17.91,-64.92 126.91,-64.92 126.91,-42.92 17.91,-42.92"/>
<text text-anchor="start" x="65.41" y="-49.32" font-family="Times,serif" font-size="14.00">Ui</text>
<polygon fill="none" stroke="black" points="17.91,-3.92 17.91,-42.92 126.91,-42.92 126.91,-3.92 17.91,-3.92"/>
<text text-anchor="start" x="20.91" y="-27.32" font-family="Times,serif" font-size="14.00">id :String</text>
<text text-anchor="start" x="20.91" y="-10.52" font-family="Times,serif" font-size="14.00">description :String</text>
</g>
<!-- Ui&#45;&gt;Parameter -->
<g id="edge1" class="edge">
<title>Ui&#45;&gt;Parameter</title>
<path fill="none" stroke="black" d="M71.91,-69.65C71.91,-81.03 71.91,-93.73 71.91,-105.12"/>
<text text-anchor="middle" x="35.95" y="-92.52" font-family="Times,serif" font-size="14.00">parameters *</text>
<text text-anchor="middle" x="54.41" y="-73.85" font-family="Times,serif" font-size="14.00">owner</text>
</g>
<!-- Ui&#45;&gt;Ui -->
<g id="edge2" class="edge">
<title>Ui&#45;&gt;Ui</title>
<path fill="none" stroke="black" d="M134.68,-16.8C145.17,-19.34 152.41,-25.38 152.41,-34.92 152.41,-44.47 145.17,-50.51 134.68,-53.05"/>
<text text-anchor="middle" x="160.54" y="-40.45" font-family="Times,serif" font-size="14.00">content *</text>
<text text-anchor="middle" x="152.17" y="-4.2" font-family="Times,serif" font-size="14.00">parent</text>
</g>
</g>
</svg>
